<?xml version="1.0" standalone="no"?>
<!DOCTYPE svg PUBLIC "-//W3C//DTD SVG 20010904//EN"
 "http://www.w3.org/TR/2001/REC-SVG-20010904/DTD/svg10.dtd">
<svg version="1.0" xmlns="http://www.w3.org/2000/svg"
 width="200.000000pt" height="200.000000pt" viewBox="0 0 200.000000 200.000000"
 preserveAspectRatio="xMidYMid meet">

<g transform="translate(0.000000,200.000000) scale(0.100000,-0.100000)"
fill="#000000" stroke="none">
<path d="M1477 981 c59 -37 68 -88 29 -156 -14 -23 -43 -54 -65 -70 -48 -33
-51 -38 -14 -24 46 17 90 48 122 85 63 71 28 167 -65 180 l-39 6 32 -21z"/>
<path d="M708 973 c7 -3 16 -2 19 1 4 3 -2 6 -13 5 -11 0 -14 -3 -6 -6z"/>
<path d="M632 955 c-23 -7 -54 -21 -69 -30 l-26 -18 27 -14 c45 -23 208 -36
386 -29 143 6 192 12 319 41 13 4 21 8 19 11 -3 2 -56 -3 -119 -12 -143 -20
-439 -23 -491 -5 -45 15 -47 23 -12 50 31 24 26 25 -34 6z"/>
<path d="M685 770 c-25 -28 -8 -44 70 -64 85 -21 273 -21 390 1 101 18 117 26
86 43 -16 8 -37 8 -78 0 -71 -13 -373 -13 -407 0 -14 5 -26 16 -26 25 0 21
-13 19 -35 -5z"/>
<path d="M734 606 c-30 -23 -7 -48 67 -73 71 -25 218 -31 299 -12 132 30 141
36 88 61 -24 10 -42 12 -63 6 -97 -28 -317 -17 -355 17 -14 13 -19 13 -36 1z"/>
<path d="M568 503 c7 -3 16 -2 19 1 4 3 -2 6 -13 5 -11 0 -14 -3 -6 -6z"/>
<path d="M497 486 c-37 -14 -65 -32 -79 -51 -14 -20 16 -34 110 -52 81 -15
146 -18 392 -17 265 0 305 2 394 22 101 23 178 51 190 71 4 6 -8 2 -27 -9
-106 -63 -641 -90 -867 -44 -116 24 -136 43 -82 76 32 21 21 22 -31 4z"/>
<path d="M1525 373 c-80 -43 -267 -73 -520 -83 l-180 -7 161 -1 c262 -3 457
25 548 79 54 31 46 42 -9 12z"/>
<path d="M11 284 c0 -11 3 -14 6 -6 3 7 2 16 -1 19 -3 4 -6 -2 -5 -13z"/>
<path d="M723 293 c9 -2 23 -2 30 0 6 3 -1 5 -18 5 -16 0 -22 -2 -12 -5z"/>
<path d="M1981 284 c0 -11 3 -14 6 -6 3 7 2 16 -1 19 -3 4 -6 -2 -5 -13z"/>
<path d="M20 245 c0 -5 5 -17 10 -25 5 -8 10 -10 10 -5 0 6 -5 17 -10 25 -5 8
-10 11 -10 5z"/>
<path d="M40 191 c0 -6 4 -13 10 -16 6 -3 7 1 4 9 -7 18 -14 21 -14 7z"/>
<path d="M1946 183 c-6 -14 -5 -15 5 -6 7 7 10 15 7 18 -3 3 -9 -2 -12 -12z"/>
<path d="M89 117 c15 -19 71 -61 71 -54 0 2 -19 19 -42 37 -24 19 -37 26 -29
17z"/>
<path d="M1875 94 c-30 -27 -32 -31 -9 -16 28 19 62 53 53 52 -2 -1 -22 -17
-44 -36z"/>
<path d="M175 49 c6 -9 75 -33 80 -27 2 2 -16 11 -40 19 -25 9 -42 13 -40 8z"/>
<path d="M1780 40 c-25 -11 -39 -19 -32 -19 16 -1 82 26 82 33 0 4 -1 6 -2 5
-2 -1 -23 -9 -48 -19z"/>
<path d="M283 13 c9 -2 23 -2 30 0 6 3 -1 5 -18 5 -16 0 -22 -2 -12 -5z"/>
<path d="M1693 13 c9 -2 23 -2 30 0 6 3 -1 5 -18 5 -16 0 -22 -2 -12 -5z"/>
</g>
</svg>
