<?xml version="1.0" standalone="no"?>
<!DOCTYPE svg PUBLIC "-//W3C//DTD SVG 20010904//EN"
 "http://www.w3.org/TR/2001/REC-SVG-20010904/DTD/svg10.dtd">
<svg version="1.0" xmlns="http://www.w3.org/2000/svg"
 width="1468.000000pt" height="1466.000000pt" viewBox="0 0 1468.000000 1466.000000"
 preserveAspectRatio="xMidYMid meet">

<g transform="translate(0.000000,1466.000000) scale(0.100000,-0.100000)"
fill="#000000" stroke="none">
<path d="M7090 14144 c-940 -29 -1670 -141 -2150 -331 -461 -182 -720 -453
-825 -863 -51 -200 -64 -483 -64 -1381 l0 -507 677 -7 c372 -4 1110 -5 1640
-3 l962 5 0 -213 0 -213 -2322 -4 c-2144 -2 -2333 -4 -2453 -20 -268 -36 -504
-103 -708 -200 -196 -94 -349 -209 -547 -413 -328 -338 -513 -755 -645 -1455
-36 -189 -82 -490 -99 -654 -82 -752 -3 -1567 234 -2435 116 -424 342 -817
626 -1090 112 -108 196 -168 331 -236 293 -149 654 -201 1278 -183 121 4 304
7 407 8 l187 1 4 868 3 867 27 122 c71 323 217 628 426 892 73 93 236 258 331
336 263 215 604 372 920 424 36 5 81 13 100 17 19 4 856 10 1860 13 l1825 7
123 22 c231 42 466 133 639 249 344 230 633 659 725 1075 l23 103 0 1775 c0
1984 6 1812 -71 2050 -76 238 -250 508 -450 700 -268 257 -613 436 -1009 525
-230 51 -729 108 -1175 134 -195 11 -669 20 -830 15z m-1482 -995 c26 -7 85
-29 131 -50 71 -33 98 -53 176 -132 77 -76 99 -106 133 -177 55 -117 66 -160
65 -270 -1 -170 -69 -325 -198 -455 -217 -218 -594 -234 -843 -35 -61 49 -140
160 -176 249 -46 115 -56 266 -24 401 6 25 28 83 51 130 74 158 240 293 412
336 64 16 212 17 273 3z"/>
</g>
</svg>
